<svg width="845" height="369" viewBox="0 0 845 369" fill="none" xmlns="http://www.w3.org/2000/svg">
<path d="M131.5 95.3263L157.695 175.946L158.481 178.364H161.024H245.792L177.213 228.19L175.156 229.685L175.941 232.103L202.136 312.723L133.557 262.897L131.5 261.402L129.443 262.897L60.8636 312.723L87.0585 232.103L87.8443 229.685L85.7871 228.19L17.208 178.364H101.976H104.519L105.305 175.946L131.5 95.3263Z" stroke="#979797" stroke-width="20"/>
<path d="M713.5 95.3263L739.695 175.946L740.481 178.364H743.024H827.792L759.213 228.19L757.156 229.685L757.941 232.103L784.136 312.723L715.557 262.897L713.5 261.402L711.443 262.897L642.864 312.723L669.059 232.103L669.844 229.685L667.787 228.19L599.208 178.364H683.976H686.519L687.305 175.946L713.5 95.3263Z" stroke="#979797" stroke-width="20"/>
<path d="M422.5 11.3263L460.594 128.568L461.38 130.986H463.923H587.198L487.466 203.446L485.409 204.94L486.195 207.359L524.289 324.6L424.557 252.141L422.5 250.646L420.443 252.141L320.711 324.6L358.805 207.359L359.591 204.94L357.534 203.446L257.802 130.986H381.077H383.62L384.406 128.568L422.5 11.3263Z" stroke="#979797" stroke-width="20"/>
</svg>
